<?xml version="1.0" encoding="UTF-8" standalone="no"?>
<!-- Created with Inkscape (http://www.inkscape.org/) -->

<svg
   xmlns:dc="http://purl.org/dc/elements/1.1/"
   xmlns:cc="http://creativecommons.org/ns#"
   xmlns:rdf="http://www.w3.org/1999/02/22-rdf-syntax-ns#"
   xmlns:svg="http://www.w3.org/2000/svg"
   xmlns="http://www.w3.org/2000/svg"
   version="1.1"
   width="64"
   height="64"
   id="svg3004"
   xml:space="preserve"><title
     id="title3024">JClic Player</title><metadata
     id="metadata3010"><rdf:RDF><cc:Work
         rdf:about=""><dc:format>image/svg+xml</dc:format><dc:type
           rdf:resource="http://purl.org/dc/dcmitype/StillImage" /><dc:title>JClic Player</dc:title><dc:creator><cc:Agent><dc:title>Francesc Busquets</dc:title></cc:Agent></dc:creator><dc:source>http://clic.xtec.cat</dc:source><cc:license
           rdf:resource="http://creativecommons.org/licenses/by/3.0/" /></cc:Work><cc:License
         rdf:about="http://creativecommons.org/licenses/by/3.0/"><cc:permits
           rdf:resource="http://creativecommons.org/ns#Reproduction" /><cc:permits
           rdf:resource="http://creativecommons.org/ns#Distribution" /><cc:requires
           rdf:resource="http://creativecommons.org/ns#Notice" /><cc:requires
           rdf:resource="http://creativecommons.org/ns#Attribution" /><cc:permits
           rdf:resource="http://creativecommons.org/ns#DerivativeWorks" /></cc:License></rdf:RDF></metadata><defs
     id="defs3008" /><g
     transform="matrix(1.25,0,0,-1.25,0,64)"
     id="g3012"><g
       transform="matrix(0.01664973,0,0,0.01664973,4.0030216,1.3395515)"
       id="g3014"><path
         d="M 1263.3,1297.41 1533.55,2300.28 2530,2033.77 2262.71,1043.52 C 1835.5,-539.234 -157.441,-2.70312 263.844,1563.11 c 2.968,11.03 999.456,-265.7 999.456,-265.7 z"
         id="path3016"
         style="fill:none;stroke:#9d6329;stroke-width:180;stroke-linecap:round;stroke-linejoin:round;stroke-miterlimit:3.8636899;stroke-opacity:1;stroke-dasharray:none" /><path
         d="M 1263.3,1297.41 1533.55,2300.28 2530,2033.77 2262.71,1043.52 C 1835.5,-539.234 -157.441,-2.70312 263.844,1563.11 c 2.968,11.03 999.456,-265.7 999.456,-265.7"
         id="path3018"
         style="fill:#f89c0e;fill-opacity:1;fill-rule:nonzero;stroke:none" /><path
         d="M 357.332,2850 1357.39,2582.2 1090.06,1589.88 90,1856.06 357.332,2850 z"
         id="path3020"
         style="fill:none;stroke:#86882b;stroke-width:180;stroke-linecap:round;stroke-linejoin:round;stroke-miterlimit:3.8636899;stroke-opacity:1;stroke-dasharray:none" /><path
         d="M 357.332,2850 1357.39,2582.2 1090.06,1589.88 90,1856.06 357.332,2850"
         id="path3022"
         style="fill:#d9e70c;fill-opacity:1;fill-rule:nonzero;stroke:none" /></g></g></svg>