<?xml version="1.0" encoding="UTF-8" standalone="no"?>
<!-- Created with Inkscape (http://www.inkscape.org/) -->

<svg
   xmlns:dc="http://purl.org/dc/elements/1.1/"
   xmlns:cc="http://creativecommons.org/ns#"
   xmlns:rdf="http://www.w3.org/1999/02/22-rdf-syntax-ns#"
   xmlns:svg="http://www.w3.org/2000/svg"
   xmlns="http://www.w3.org/2000/svg"
   version="1.1"
   width="64"
   height="64"
   id="svg3186"
   xml:space="preserve"><title
     id="title3233">JClic Reports</title><metadata
     id="metadata3192"><rdf:RDF><cc:Work
         rdf:about=""><dc:format>image/svg+xml</dc:format><dc:type
           rdf:resource="http://purl.org/dc/dcmitype/StillImage" /><dc:title>JClic Reports</dc:title><cc:license
           rdf:resource="http://creativecommons.org/licenses/by/3.0/" /><dc:creator><cc:Agent><dc:title>Francesc Busquets</dc:title></cc:Agent></dc:creator><dc:source>http://clic.xtec.cat</dc:source></cc:Work><cc:License
         rdf:about="http://creativecommons.org/licenses/by/3.0/"><cc:permits
           rdf:resource="http://creativecommons.org/ns#Reproduction" /><cc:permits
           rdf:resource="http://creativecommons.org/ns#Distribution" /><cc:requires
           rdf:resource="http://creativecommons.org/ns#Notice" /><cc:requires
           rdf:resource="http://creativecommons.org/ns#Attribution" /><cc:permits
           rdf:resource="http://creativecommons.org/ns#DerivativeWorks" /></cc:License></rdf:RDF></metadata><defs
     id="defs3190" /><g
     transform="matrix(1.25,0,0,-1.25,0,64)"
     id="g3194"><g
       transform="matrix(0.0177394,0,0,0.0177394,1.4409938,1.3614907)"
       id="g3196"><path
         d="m 500,90 540,0 0,1080 -540,0 0,-1080 z"
         id="path3198"
         style="fill:none;stroke:#9d6329;stroke-width:180;stroke-linecap:round;stroke-linejoin:round;stroke-miterlimit:3.8636899;stroke-opacity:1;stroke-dasharray:none" /><path
         d="m 500,90 540,0 0,1080 -540,0 0,-1080 z"
         id="path3200"
         style="fill:#f89c0e;fill-opacity:1;fill-rule:nonzero;stroke:none" /><path
         d="m 1300,90 540,0 0,1620 -540,0 0,-1620 z"
         id="path3202"
         style="fill:none;stroke:#9d6329;stroke-width:180;stroke-linecap:round;stroke-linejoin:round;stroke-miterlimit:3.8636899;stroke-opacity:1;stroke-dasharray:none" /><path
         d="m 1300,90 540,0 0,1620 -540,0 0,-1620 z"
         id="path3204"
         style="fill:#f89c0e;fill-opacity:1;fill-rule:nonzero;stroke:none" /><path
         d="m 2100,90 540,0 0,2160 -540,0 0,-2160 z"
         id="path3206"
         style="fill:none;stroke:#9d6329;stroke-width:180;stroke-linecap:round;stroke-linejoin:round;stroke-miterlimit:3.8636899;stroke-opacity:1;stroke-dasharray:none" /><path
         d="m 2100,90 540,0 0,2160 -540,0 0,-2160 z"
         id="path3208"
         style="fill:#f89c0e;fill-opacity:1;fill-rule:nonzero;stroke:none" /><path
         d="M 357.332,2670 1357.39,2402.2 1090.06,1409.88 90,1676.06 357.332,2670 z"
         id="path3210"
         style="fill:none;stroke:#86882b;stroke-width:180;stroke-linecap:round;stroke-linejoin:round;stroke-miterlimit:3.8636899;stroke-opacity:1;stroke-dasharray:none" /><path
         d="M 357.332,2670 1357.39,2402.2 1090.06,1409.88 90,1676.06 357.332,2670"
         id="path3212"
         style="fill:#d9e70c;fill-opacity:1;fill-rule:nonzero;stroke:none" /></g></g></svg>